# xmcd
# 
# Track frame offsets:
#     150
#     5610
#     30226
#     48561
#     72608
#     94844
#     102208
#     105006
#     125766
#     151917
#     176445
# 
# Disc length: 2607
# 
# Revision: 2
# Processed by: cddbd v1.5.2PL0 Copyright (c) Steve Scherf et al.
# Submitted via: fre:ac v1.0.17
# 
DISCID=830a2d0b
DTITLE=Vow Wow - Cyclone
DYEAR=1985
DGENRE=Heavy Metal
TTITLE0=Premonition
TTITLE1=Hurricane
TTITLE2=Hell-Raisers Wanted
TTITLE3=Love Walks
TTITLE4=U.S.A.
TTITLE5=Need Your Love
TTITLE6=Eclipse
TTITLE7=Siren Song
TTITLE8=Shake Your Body
TTITLE9=Rock Your Cradle
TTITLE10=You Know What I Mean
EXTD=
EXTT0=
EXTT1=
EXTT2=
EXTT3=
EXTT4=
EXTT5=
EXTT6=
EXTT7=
EXTT8=
EXTT9=
EXTT10=
PLAYORDER=
